<?xml version="1.0" encoding="UTF-8" standalone="no"?><!DOCTYPE svg PUBLIC "-//W3C//DTD SVG 1.1//EN" "http://www.w3.org/Graphics/SVG/1.1/DTD/svg11.dtd"><svg width="100%" height="100%" viewBox="0 0 24 24" version="1.1" xmlns="http://www.w3.org/2000/svg" xmlns:xlink="http://www.w3.org/1999/xlink" xml:space="preserve" xmlns:serif="http://www.serif.com/" style="fill-rule:evenodd;clip-rule:evenodd;stroke-linejoin:round;stroke-miterlimit:1.41421;"><path d="M4.069,13l-4.069,0l0,-2l4.069,0c-0.041,0.328 -0.069,0.661 -0.069,1c0,0.339 0.028,0.672 0.069,1Zm3.034,-7.312l-2.881,-2.881l-1.414,1.414l2.881,2.881c0.411,-0.529 0.885,-1.003 1.414,-1.414Zm11.209,1.414l2.881,-2.881l-1.414,-1.414l-2.881,2.881c0.528,0.411 1.002,0.886 1.414,1.414Zm-6.312,-3.102c0.339,0 0.672,0.028 1,0.069l0,-4.069l-2,0l0,4.069c0.328,-0.041 0.661,-0.069 1,-0.069Zm0,16c-0.339,0 -0.672,-0.028 -1,-0.069l0,4.069l2,0l0,-4.069c-0.328,0.041 -0.661,0.069 -1,0.069Zm7.931,-9c0.041,0.328 0.069,0.661 0.069,1c0,0.339 -0.028,0.672 -0.069,1l4.069,0l0,-2l-4.069,0Zm-3.033,7.312l2.88,2.88l1.415,-1.414l-2.88,-2.88c-0.412,0.528 -0.886,1.002 -1.415,1.414Zm-11.21,-1.415l-2.88,2.88l1.414,1.414l2.88,-2.88c-0.528,-0.411 -1.003,-0.885 -1.414,-1.414Zm2.312,-4.897c0,2.206 1.794,4 4,4c2.206,0 4,-1.794 4,-4c0,-2.206 -1.794,-4 -4,-4c-2.206,0 -4,1.794 -4,4Zm10,0c0,3.314 -2.686,6 -6,6c-3.314,0 -6,-2.686 -6,-6c0,-3.314 2.686,-6 6,-6c3.314,0 6,2.686 6,6Z" style="fill:#fff;fill-rule:nonzero;"/></svg>