<?xml version="1.0" encoding="UTF-8" standalone="no"?><!DOCTYPE svg PUBLIC "-//W3C//DTD SVG 1.1//EN" "http://www.w3.org/Graphics/SVG/1.1/DTD/svg11.dtd"><svg width="100%" height="100%" viewBox="0 0 24 24" version="1.1" xmlns="http://www.w3.org/2000/svg" xmlns:xlink="http://www.w3.org/1999/xlink" xml:space="preserve" xmlns:serif="http://www.serif.com/" style="fill-rule:evenodd;clip-rule:evenodd;stroke-linejoin:round;stroke-miterlimit:1.41421;"><path d="M2.396,12l-2.396,0l0,-2l2.396,0l0,2Zm7.604,-6.458l0,-3.542l-2,0l0,3.542l2,0Zm-4.793,0.876l-2.156,-2.156l-1.414,1.414l2.156,2.156l1.414,-1.414Zm9.461,-2.396l-2.115,2.114l1.414,1.414l2.115,-2.114l-1.414,-1.414Zm-11.7,10.907l-2.198,1.919l1.303,1.517l2.198,-1.919l-1.303,-1.517Zm21.032,2.793c0,2.362 -1.95,4.278 -4.354,4.278l-10.292,0c-2.404,0 -4.354,-1.916 -4.354,-4.278c0,-0.77 0.211,-1.49 0.574,-2.113c-0.964,-0.907 -1.574,-2.18 -1.574,-3.609c0,-2.762 2.238,-5 5,-5c1.329,0 2.523,0.528 3.414,1.376c0.649,-0.24 1.35,-0.376 2.086,-0.376c3.171,0 5.753,2.443 5.921,5.516c2.034,0.359 3.579,2.105 3.579,4.206Zm-18,-5.722c0,0.86 0.37,1.628 0.955,2.172c0.485,-0.316 1.029,-0.551 1.624,-0.656c0.088,-1.61 0.843,-3.042 1.994,-4.046c-0.46,-0.288 -0.991,-0.47 -1.573,-0.47c-1.654,0 -3,1.346 -3,3Zm16,5.722c0,-2.076 -1.979,-2.618 -3.489,-2.512c0.218,-1.439 -0.24,-5.21 -4.011,-5.21c-3.875,0 -4.062,3.854 -4.011,5.209c-1.385,-0.084 -3.489,0.395 -3.489,2.513c0,1.256 1.056,2.278 2.354,2.278l10.291,0c1.299,0 2.355,-1.022 2.355,-2.278Z" style="fill:#fff;fill-rule:nonzero;"/></svg>