<?xml version="1.0" encoding="UTF-8" standalone="no"?><!DOCTYPE svg PUBLIC "-//W3C//DTD SVG 1.1//EN" "http://www.w3.org/Graphics/SVG/1.1/DTD/svg11.dtd"><svg width="100%" height="100%" viewBox="0 0 24 24" version="1.1" xmlns="http://www.w3.org/2000/svg" xmlns:xlink="http://www.w3.org/1999/xlink" xml:space="preserve" xmlns:serif="http://www.serif.com/" style="fill-rule:evenodd;clip-rule:evenodd;stroke-linejoin:round;stroke-miterlimit:1.41421;"><path d="M20.422,11.516c-0.178,-3.233 -3.031,-5.778 -6.432,-5.492c-1.087,-1.239 -2.693,-2.024 -4.49,-2.024c-3.172,0 -5.754,2.443 -5.922,5.516c-2.033,0.359 -3.578,2.105 -3.578,4.206c0,2.362 1.949,4.278 4.354,4.278l1.326,0c0.771,1.198 2.124,2 3.674,2l10.291,0c2.406,0 4.355,-1.916 4.355,-4.278c0,-2.101 -1.545,-3.847 -3.578,-4.206Zm-15.395,4.484l-0.673,0c-1.297,0 -2.354,-1.022 -2.354,-2.278c0,-2.118 2.104,-2.597 3.488,-2.512c-0.05,-1.356 0.137,-5.21 4.012,-5.21c0.967,0 1.714,0.25 2.29,0.644c-1.823,0.922 -3.096,2.746 -3.212,4.872c-2.022,0.358 -3.697,2.127 -3.551,4.484Zm14.618,2l-10.291,0c-1.297,0 -2.354,-1.022 -2.354,-2.278c0,-2.118 2.104,-2.597 3.488,-2.512c-0.05,-1.356 0.137,-5.21 4.012,-5.21c3.771,0 4.229,3.771 4.012,5.209c1.509,-0.105 3.488,0.437 3.488,2.513c0,1.256 -1.057,2.278 -2.355,2.278Z" style="fill:#fff;fill-rule:nonzero;"/></svg>