<?xml version="1.0" encoding="UTF-8" standalone="no"?><!DOCTYPE svg PUBLIC "-//W3C//DTD SVG 1.1//EN" "http://www.w3.org/Graphics/SVG/1.1/DTD/svg11.dtd"><svg width="100%" height="100%" viewBox="0 0 24 24" version="1.1" xmlns="http://www.w3.org/2000/svg" xmlns:xlink="http://www.w3.org/1999/xlink" xml:space="preserve" xmlns:serif="http://www.serif.com/" style="fill-rule:evenodd;clip-rule:evenodd;stroke-linejoin:round;stroke-miterlimit:1.41421;"><path d="M15,10c3.753,0 3.844,3.922 3.701,4.822c1.033,0.053 3.299,0.246 3.299,2.206c0,1.087 -0.953,1.972 -2.125,1.972l-9.75,0c-1.172,0 -2.125,-0.885 -2.125,-1.972c0,-1.94 2.235,-2.151 3.299,-2.206c-0.127,-0.797 -0.171,-4.822 3.701,-4.822Zm0,-2c-3.004,0 -5.45,2.268 -5.609,5.123c-1.928,0.333 -3.391,1.954 -3.391,3.905c0,2.193 1.848,3.972 4.125,3.972l9.75,0c2.277,0 4.125,-1.779 4.125,-3.972c0,-1.951 -1.463,-3.572 -3.391,-3.905c-0.159,-2.855 -2.605,-5.123 -5.609,-5.123Zm-7.382,3.58c0.766,-2.932 3.325,-5.126 6.445,-5.502c-0.905,-1.82 -2.828,-3.078 -5.063,-3.078c-3.004,0 -5.45,2.268 -5.609,5.123c-1.928,0.333 -3.391,1.954 -3.391,3.905c0,2.185 1.835,3.957 4.101,3.97c0.349,-1.959 1.671,-3.615 3.517,-4.418Z" style="fill:#fff;fill-rule:nonzero;"/></svg>