<?xml version="1.0" encoding="UTF-8" standalone="no"?><!DOCTYPE svg PUBLIC "-//W3C//DTD SVG 1.1//EN" "http://www.w3.org/Graphics/SVG/1.1/DTD/svg11.dtd"><svg width="100%" height="100%" viewBox="0 0 24 24" version="1.1" xmlns="http://www.w3.org/2000/svg" xmlns:xlink="http://www.w3.org/1999/xlink" xml:space="preserve" xmlns:serif="http://www.serif.com/" style="fill-rule:evenodd;clip-rule:evenodd;stroke-linejoin:round;stroke-miterlimit:1.41421;"><path d="M11,10l-11,0l0,-2l11,0c0.552,0 1,-0.448 1,-1c0,-0.552 -0.448,-1 -1,-1c-0.403,0 -0.747,0.242 -0.905,0.587l-1.749,-0.956c0.499,-0.965 1.494,-1.631 2.654,-1.631c3.971,0 3.969,6 0,6Zm7,7c0,-1.656 -1.344,-3 -3,-3l-15,0l0,2l15,0c0.552,0 1,0.448 1,1c0,0.552 -0.448,1 -1,1c-0.403,0 -0.747,-0.242 -0.905,-0.587l-1.749,0.956c0.499,0.965 1.494,1.631 2.654,1.631c1.656,0 3,-1.344 3,-3Zm1.014,-7.655c0.082,-0.753 0.712,-1.345 1.486,-1.345c0.827,0 1.5,0.673 1.5,1.5c0,0.827 -0.673,1.5 -1.5,1.5l-20.5,0l0,2l20.5,0c1.932,0 3.5,-1.568 3.5,-3.5c0,-1.932 -1.568,-3.5 -3.5,-3.5c-1.624,0 -2.977,1.116 -3.372,2.617l1.886,0.728Z" style="fill:#fff;fill-rule:nonzero;"/></svg>